<svg width="37" height="15" viewBox="0 0 37 15" fill="none" xmlns="http://www.w3.org/2000/svg">
<path d="M14.8319 0.954103C14.7405 0.953895 14.6501 0.972565 14.5657 1.00904C14.4813 1.04551 14.4046 1.09906 14.3401 1.16662C14.2756 1.23417 14.2245 1.31439 14.1898 1.40266C14.1551 1.49093 14.1374 1.5855 14.1378 1.68093V13.3792C14.1376 13.4745 14.1554 13.5689 14.1902 13.657C14.225 13.7451 14.2761 13.8251 14.3406 13.8925C14.4051 13.9599 14.4817 14.0133 14.566 14.0497C14.6503 14.0861 14.7407 14.1047 14.8319 14.1045H35.9543V14.1076C36.0455 14.1078 36.1358 14.0892 36.2201 14.0528C36.3044 14.0165 36.381 13.963 36.4455 13.8957C36.51 13.8283 36.5611 13.7482 36.5959 13.6601C36.6307 13.5721 36.6485 13.4777 36.6483 13.3824V1.68093C36.6485 1.58563 36.6307 1.49123 36.5959 1.40314C36.5611 1.31506 36.51 1.23502 36.4455 1.16763C36.381 1.10025 36.3044 1.04683 36.2201 1.01046C36.1358 0.974084 36.0455 0.955466 35.9543 0.955673L14.8319 0.954103ZM6.89067 0.966662C5.31041 0.973126 3.79027 1.6003 2.63204 2.72367C1.47381 3.84703 0.762195 5.38444 0.638477 7.03065C0.514759 8.67686 0.987987 10.3115 1.9642 11.61C2.94042 12.9085 4.34824 13.776 5.90816 14.0401V9.44368H4.29919V7.54263H5.90665V6.09212C5.90665 4.44381 6.83959 3.52861 8.2788 3.52861C8.96535 3.52861 9.68045 3.66675 9.68045 3.66675V5.27425H8.89324C8.11204 5.27425 7.86115 5.78758 7.86115 6.30405V7.53949H9.60984L9.32891 9.43898H7.85815V14.037C9.42358 13.7819 10.8393 12.9191 11.8225 11.6209C12.8057 10.3227 13.2839 8.68468 13.1618 7.03406C13.0396 5.38345 12.3259 3.84176 11.1634 2.71698C10.0009 1.5922 8.47501 0.967141 6.89067 0.966662ZM17.6577 4.74522H18.6117V9.44368H21.0574V10.3134H17.6577V4.74522ZM22.082 4.74522H23.0359V10.3134H22.082V4.74522ZM23.9508 4.74522H25.0055L26.347 9.15327H26.4116L27.7427 4.74522H28.7567L26.9134 10.3134H25.8122L23.9508 4.74522ZM29.6746 4.74993H33.1239V5.60862H30.6301V7.08425H32.9887V7.89584H30.6301V9.45467H33.1239V10.3181H29.6746V4.74993Z" fill="#139FDD"/>
</svg>
