<svg width="157" height="39" viewBox="0 0 157 39" fill="none" xmlns="http://www.w3.org/2000/svg">
<path fill-rule="evenodd" clip-rule="evenodd" d="M19.7038 0.622683C30.23 0.622683 38.7612 8.86039 38.7612 19.0177C38.7612 29.179 30.23 37.4127 19.7038 37.4127C9.17768 37.4127 0.646484 29.179 0.646484 19.0177C0.646484 8.85642 9.17768 0.622683 19.7038 0.622683ZM19.7038 0C30.587 0 39.4077 8.51533 39.4077 19.0177C39.4077 29.5201 30.587 38.0354 19.7038 38.0354C8.82072 38.0354 0 29.5201 0 19.0177C0 8.51533 8.82469 0 19.7038 0Z" fill="white"/>
<path fill-rule="evenodd" clip-rule="evenodd" d="M23.2097 22.2902C23.8999 22.08 24.5344 21.8499 25.0897 21.5961C24.5106 21.9094 23.8761 22.187 23.1978 22.429C23.2018 22.3854 23.2058 22.3378 23.2097 22.2902ZM8.49929 17.4316C5.00907 20.0176 8.92763 21.9292 11.3827 22.6392C14.0479 23.4086 17.1733 23.4245 19.9535 23.012C19.9456 23.0953 19.9377 23.1746 19.9297 23.2579C16.9155 23.7497 13.6037 23.6466 10.9067 22.8851C8.27321 22.1395 4.3388 19.966 8.49929 17.4316Z" fill="white"/>
<path fill-rule="evenodd" clip-rule="evenodd" d="M22.3178 27.4701C23.3768 27.1766 24.408 26.8038 25.3956 26.3596C24.4278 26.8831 23.3728 27.3075 22.2782 27.6367L22.3178 27.4701ZM9.57854 22.7227C7.67082 24.1346 7.92465 25.2768 8.94395 26.1335C10.4432 27.3948 12.684 27.9818 14.8297 28.1761C16.2813 28.307 17.7607 28.2753 19.2282 28.0928L19.1885 28.303C17.1737 28.5767 15.1192 28.5608 13.2195 28.2594C11.5735 27.9976 10.0069 27.4701 8.81704 26.5262C7.5677 25.5386 7.19092 24.1782 9.57854 22.7227Z" fill="white"/>
<path fill-rule="evenodd" clip-rule="evenodd" d="M23.2977 17.9196C23.7538 17.7729 24.1743 17.6103 24.551 17.4397C24.1624 17.6499 23.7459 17.8403 23.3057 18.0109L23.2977 17.9196ZM10.5902 13.9297C7.65524 16.1031 10.9511 17.7134 13.0175 18.3083C15.2306 18.9508 17.8245 18.9667 20.1407 18.6375C20.1407 18.7049 20.1446 18.7724 20.1446 18.8438C17.6261 19.2483 14.8657 19.1531 12.6129 18.5185C10.4038 17.8919 7.08808 16.0635 10.5902 13.9297Z" fill="white"/>
<path fill-rule="evenodd" clip-rule="evenodd" d="M21.3102 30.9607C21.3499 30.9528 21.3895 30.9448 21.4252 30.9409C21.3856 30.9528 21.3459 30.9607 21.3062 30.9686L21.3102 30.9607ZM15.9242 11.9668C11.6487 13.2518 8.55506 16.9483 8.55506 21.3111C8.55506 26.5464 13.0091 30.8259 18.6172 31.1233L18.5855 31.278C12.7076 31.2502 7.94824 26.7962 7.94824 21.3111C7.94824 17.8526 9.8401 14.8066 12.7076 13.0178L12.8623 12.9464C13.8538 12.4903 14.8771 12.1651 15.9242 11.9668Z" fill="white"/>
<path fill-rule="evenodd" clip-rule="evenodd" d="M21.5325 12.0855C23.5116 18.3996 22.6986 24.9834 20.2356 31.9043L18.9228 32.9276C21.1676 23.1233 21.358 17.3485 19.9024 11.792C20.4498 11.8554 20.9931 11.9546 21.5325 12.0855ZM16.9556 3.58203C18.3874 5.40646 19.5177 7.25072 20.3863 9.11877C19.9302 9.03549 19.4741 8.976 19.018 8.93633C18.4151 7.25469 17.6695 5.53338 16.793 3.67326L16.9556 3.58203Z" fill="white"/>
<path fill-rule="evenodd" clip-rule="evenodd" d="M19.7393 33.7448C23.1145 30.4688 24.9666 28.803 29.9005 30.0484V28.1248C24.5026 27.284 22.23 29.6319 19.7393 33.7448Z" fill="white"/>
<path fill-rule="evenodd" clip-rule="evenodd" d="M20.2793 31.8522C24.1185 26.6487 26.6331 25.2724 32.7251 25.4429V16.4913C29.0326 16.1582 25.2251 17.114 22.7581 19.8269C25.0268 18.4586 28.3901 17.4987 31.3528 17.8676V23.908C25.2965 24.2491 22.893 26.2203 20.2793 31.8522Z" fill="white"/>
<path fill-rule="evenodd" clip-rule="evenodd" d="M12.5686 12.3071C17.1376 10.1971 22.599 10.6294 28.0286 14.3933L28.219 14.2505C23.8086 9.51489 17.7563 8.214 11.1328 10.9229L12.5686 12.3071Z" fill="white"/>
<path d="M54.2126 11.2297C53.6851 10.7815 53.1299 10.4444 52.5429 10.2223C51.9559 9.99625 51.3411 9.88519 50.6946 9.88519C49.4413 9.88519 48.426 10.2858 47.6407 11.0909C46.8554 11.8921 46.4628 12.9352 46.4628 14.2123C46.4628 15.4497 46.8435 16.469 47.609 17.2702C48.3744 18.0713 49.3343 18.4759 50.5003 18.4759C51.1785 18.4759 51.825 18.3569 52.4358 18.115C53.0466 17.877 53.6375 17.5121 54.2007 17.0282V19.1343C53.701 19.4952 53.1537 19.7609 52.5667 19.9394C51.9757 20.1179 51.3372 20.2051 50.651 20.2051C49.7745 20.2051 48.9654 20.0623 48.2237 19.7768C47.4821 19.4912 46.8276 19.0668 46.2645 18.5076C45.7052 17.9603 45.2769 17.3138 44.9794 16.5721C44.678 15.8305 44.5312 15.0372 44.5312 14.1964C44.5312 13.3556 44.682 12.5703 44.9794 11.8286C45.2809 11.0909 45.7132 10.4444 46.2803 9.88519C46.8475 9.322 47.5019 8.89763 48.2356 8.6081C48.9694 8.31857 49.7666 8.17578 50.6193 8.17578C51.2935 8.17578 51.9321 8.27494 52.5429 8.46928C53.1537 8.66363 53.7446 8.96108 54.3197 9.3577L54.2126 11.2297Z" fill="white"/>
<path d="M56.5205 19.8956V8.44531H58.3806V12.6693H64.0126V8.44531H65.8727V19.8956H64.0126V14.335H58.3806V19.8956H56.5205Z" fill="white"/>
<path d="M70.248 14.7752V19.8995H68.5029V8.44922H71.1008C71.8623 8.44922 72.4532 8.50078 72.8736 8.59596C73.294 8.69512 73.651 8.85774 73.9484 9.08778C74.3014 9.36541 74.5751 9.72235 74.7694 10.1586C74.9638 10.5949 75.059 11.0748 75.059 11.5983C75.059 12.5145 74.8369 13.2324 74.3927 13.752C73.9484 14.2715 73.294 14.5809 72.4294 14.688L76.3718 19.8955H74.2697L70.4622 14.7713H70.248V14.7752ZM70.367 13.3276H70.7041C71.6877 13.3276 72.3422 13.2126 72.6674 12.9825C72.9886 12.7525 73.1513 12.3479 73.1513 11.761C73.1513 11.1303 72.9767 10.6861 72.6317 10.4283C72.2866 10.1705 71.6441 10.0396 70.7041 10.0396H70.367V13.3276Z" fill="white"/>
<path d="M77.5059 19.8956V8.44531H79.366V19.8956H77.5059Z" fill="white"/>
<path d="M81.3848 17.607L82.8721 16.9169C83.0109 17.4286 83.2727 17.8173 83.6455 18.087C84.0223 18.3567 84.5022 18.4915 85.0852 18.4915C85.6365 18.4915 86.0767 18.3368 86.4019 18.0314C86.7272 17.7221 86.8898 17.3136 86.8898 16.794C86.8898 16.1197 86.3306 15.5209 85.2161 14.9934C85.0614 14.914 84.9384 14.8585 84.8551 14.8228C83.5939 14.2081 82.7531 13.6528 82.3327 13.1531C81.9123 12.6533 81.7021 12.0465 81.7021 11.3286C81.7021 10.3966 82.0194 9.63905 82.6539 9.05999C83.2885 8.48094 84.1174 8.19141 85.1447 8.19141C85.9895 8.19141 86.6954 8.35402 87.2626 8.67925C87.8298 9.00447 88.2264 9.47247 88.4445 10.0833L86.9889 10.8329C86.7589 10.4719 86.509 10.2102 86.2354 10.0436C85.9617 9.87703 85.6484 9.79373 85.2914 9.79373C84.7917 9.79373 84.3951 9.92461 84.0976 10.1864C83.8041 10.4481 83.6574 10.7972 83.6574 11.2334C83.6574 11.9236 84.3038 12.5621 85.5968 13.157C85.696 13.2046 85.7753 13.2403 85.8308 13.2681C86.9612 13.7877 87.7385 14.2993 88.1629 14.799C88.5873 15.2987 88.7975 15.9175 88.7975 16.6631C88.7975 17.7459 88.4564 18.6105 87.7742 19.249C87.0921 19.8876 86.1679 20.2088 85.0059 20.2088C84.0302 20.2088 83.233 19.9828 82.6103 19.5346C81.9876 19.0825 81.5791 18.4399 81.3848 17.607Z" fill="white"/>
<path d="M94.533 10.0278V19.8995H92.6729V10.0278H89.6309V8.44922H97.5632V10.0278H94.533Z" fill="white"/>
<path d="M103.817 19.8956V8.44531H110.207V10.0238H105.678V12.8795H110.207V14.5135H105.678V19.8956H103.817Z" fill="white"/>
<path d="M119.789 19.8947L118.492 16.9478H113.955L112.626 19.8947H110.671L116.216 7.98828L121.752 19.8947H119.789ZM114.645 15.3971H117.838L116.664 12.7834C116.596 12.6168 116.525 12.4264 116.454 12.2083C116.382 11.9901 116.307 11.7522 116.235 11.4864C116.172 11.7363 116.105 11.9703 116.037 12.1845C115.966 12.4026 115.894 12.6009 115.823 12.7834L114.645 15.3971Z" fill="white"/>
<path d="M132.171 14.2433C132.152 14.1561 132.116 13.9102 132.068 13.5096C132.029 13.1764 131.989 12.8988 131.957 12.6807C131.91 12.9424 131.842 13.2002 131.759 13.462C131.672 13.7238 131.565 13.9895 131.434 14.2592L128.439 20.3591L125.445 14.1323C125.318 13.8784 125.211 13.6286 125.12 13.3906C125.028 13.1526 124.949 12.9147 124.882 12.6807C124.878 12.9186 124.858 13.1725 124.822 13.4342C124.786 13.696 124.739 13.9736 124.671 14.2592L123.442 19.899H121.729L124.433 7.9649L127.813 15.1912C127.864 15.3062 127.943 15.4966 128.051 15.7624C128.158 16.0281 128.285 16.3573 128.439 16.746C128.55 16.4168 128.721 16.0003 128.955 15.4927C129.018 15.3578 129.066 15.2547 129.094 15.1793L132.394 7.96094L135.162 19.8951H133.433L132.171 14.2433Z" fill="white"/>
<path d="M136.685 19.8956V8.44531H138.545V19.8956H136.685Z" fill="white"/>
<path d="M141.223 19.8956V8.44531H143.083V18.2298H147.243V19.8956H141.223Z" fill="white"/>
<path d="M151.217 19.8956V14.6563L147.362 8.44531H149.318L151.717 12.3321C151.773 12.4313 151.848 12.5622 151.931 12.7248C152.019 12.8874 152.106 13.0619 152.193 13.2483C152.264 13.0659 152.344 12.8953 152.423 12.7327C152.502 12.5701 152.59 12.4234 152.677 12.2885L155.14 8.44927H157L153.058 14.6603V19.8995H151.217V19.8956Z" fill="white"/>
<path d="M66.6508 26.3085C66.6389 26.2529 66.6191 26.1022 66.5873 25.8563C66.5635 25.6501 66.5398 25.4795 66.5199 25.3447C66.4922 25.5073 66.4485 25.6659 66.397 25.8246C66.3454 25.9872 66.278 26.1498 66.1987 26.3164L64.3544 30.0763L62.5101 26.241C62.4348 26.0824 62.3674 25.9317 62.3118 25.7849C62.2563 25.6382 62.2048 25.4914 62.1651 25.3447C62.1611 25.4914 62.1492 25.6461 62.1294 25.8087C62.1096 25.9713 62.0778 26.1419 62.0342 26.3164L61.2767 29.7907H60.2217L61.8875 22.4375L63.9697 26.8875C64.0014 26.9589 64.049 27.0739 64.1164 27.2405C64.1839 27.4031 64.2632 27.6054 64.3544 27.8473C64.4218 27.645 64.5289 27.3872 64.6717 27.0779C64.7114 26.9946 64.7391 26.9311 64.759 26.8836L66.7936 22.4375L68.499 29.7907H67.4361L66.6508 26.3085Z" fill="white"/>
<path d="M74.7617 29.7901V22.7383H75.9079V29.7901H74.7617Z" fill="white"/>
<path d="M82.8838 29.7904V22.457L87.3655 26.7682C87.4885 26.8912 87.6115 27.0221 87.7384 27.1569C87.8653 27.2957 87.9962 27.4504 88.135 27.6249V22.7347H89.1939V30.0641L84.621 25.6736C84.498 25.5546 84.379 25.4277 84.268 25.2968C84.153 25.1659 84.0459 25.0271 83.9428 24.8843V29.7904H82.8838Z" fill="white"/>
<path d="M96.1553 29.7901V22.7383H97.3015V29.7901H96.1553Z" fill="white"/>
<path d="M103.873 28.3786L104.789 27.9542C104.876 28.2675 105.035 28.5095 105.265 28.676C105.495 28.8426 105.793 28.9259 106.154 28.9259C106.495 28.9259 106.764 28.8307 106.967 28.6404C107.169 28.45 107.268 28.1962 107.268 27.8789C107.268 27.4624 106.923 27.0936 106.237 26.7723C106.142 26.7247 106.066 26.689 106.015 26.6652C105.237 26.2845 104.718 25.9434 104.46 25.638C104.202 25.3326 104.071 24.9558 104.071 24.5116C104.071 23.9365 104.266 23.4725 104.658 23.1155C105.047 22.7586 105.559 22.5801 106.193 22.5801C106.713 22.5801 107.149 22.6792 107.498 22.8815C107.847 23.0838 108.089 23.3693 108.224 23.7461L107.328 24.2102C107.185 23.9881 107.03 23.8255 106.864 23.7223C106.697 23.6192 106.503 23.5676 106.284 23.5676C105.975 23.5676 105.733 23.647 105.551 23.8096C105.368 23.9722 105.277 24.1864 105.277 24.4561C105.277 24.8804 105.674 25.2771 106.471 25.6419C106.53 25.6697 106.578 25.6935 106.614 25.7094C107.312 26.0306 107.788 26.344 108.049 26.6533C108.311 26.9587 108.438 27.3434 108.438 27.8035C108.438 28.4698 108.228 29.0013 107.807 29.3939C107.387 29.7866 106.82 29.9849 106.102 29.9849C105.503 29.9849 105.007 29.8461 104.627 29.5684C104.246 29.2868 103.992 28.8942 103.873 28.3786Z" fill="white"/>
<path d="M117.302 23.71V29.7901H116.156V23.71H114.28V22.7383H119.167V23.71H117.302Z" fill="white"/>
<path d="M126.445 26.633V29.7901H125.37V22.7383H126.968C127.436 22.7383 127.801 22.77 128.059 22.8295C128.317 22.889 128.539 22.9921 128.722 23.1349C128.94 23.3054 129.11 23.5236 129.229 23.7933C129.348 24.063 129.408 24.3604 129.408 24.6817C129.408 25.2489 129.273 25.6891 128.999 26.0104C128.725 26.3316 128.325 26.522 127.789 26.5855L130.217 29.7941H128.92L126.572 26.637H126.445V26.633ZM126.52 25.7407H126.727C127.333 25.7407 127.738 25.6693 127.936 25.5305C128.135 25.3877 128.234 25.1378 128.234 24.7769C128.234 24.3882 128.127 24.1145 127.912 23.9559C127.698 23.7972 127.302 23.7179 126.727 23.7179H126.52V25.7407Z" fill="white"/>
<path d="M137.744 29.7901V26.5617L135.368 22.7344H136.574L138.053 25.1299C138.089 25.1894 138.133 25.2727 138.184 25.3719C138.236 25.471 138.291 25.5781 138.347 25.6931C138.39 25.5821 138.438 25.475 138.49 25.3758C138.541 25.2767 138.593 25.1855 138.644 25.1022L140.163 22.7383H141.309L138.882 26.5657V29.7941H137.744V29.7901Z" fill="white"/>
</svg>
