<svg width="37" height="10" viewBox="0 0 37 10" fill="none" xmlns="http://www.w3.org/2000/svg">
<g clip-path="url(#clip0_2916_8690)">
<path d="M12.2055 2.27807C12.1395 2.0229 12.0107 1.79028 11.8321 1.60337C11.6534 1.41646 11.431 1.28178 11.1872 1.21274C10.2942 0.958008 6.70089 0.958008 6.70089 0.958008C6.70089 0.958008 3.1074 0.965738 2.21462 1.22047C1.97074 1.28952 1.74841 1.42421 1.56976 1.61112C1.39111 1.79803 1.26237 2.03064 1.19638 2.2858C0.926298 3.94562 0.821518 6.47464 1.20376 8.06799C1.26976 8.32314 1.39849 8.55575 1.57715 8.74266C1.7558 8.92958 1.97813 9.06426 2.22201 9.13331C3.11486 9.38804 6.70828 9.38804 6.70828 9.38804C6.70828 9.38804 10.3017 9.38804 11.1945 9.13331C11.4384 9.06426 11.6608 8.92958 11.8394 8.74266C12.0181 8.55575 12.1468 8.32314 12.2128 8.06799C12.4976 6.40588 12.5854 3.8784 12.2054 2.27814L12.2055 2.27807Z" fill="#FF0000"/>
<path d="M5.55762 6.9791L8.53861 5.17269L5.55762 3.36621V6.9791Z" fill="#DBDBDB"/>
<path d="M35.521 3.4053C35.912 3.4053 36.2071 3.48245 36.4137 3.62911C36.6203 3.77584 36.768 4.00738 36.8565 4.32396C36.945 4.64047 36.9819 5.07271 36.9819 5.62856V6.53184H35.0856V6.80969L35.1151 7.57397C35.1372 7.74382 35.1742 7.86736 35.2332 7.94451C35.2923 8.02174 35.3881 8.06032 35.5136 8.06032C35.6833 8.06032 35.8014 7.9909 35.8604 7.85197C35.9268 7.71297 35.9563 7.48135 35.9637 7.16485L36.945 7.22662C36.9524 7.27292 36.9524 7.33469 36.9524 7.41185C36.9524 7.8982 36.827 8.26109 36.5687 8.50037C36.3104 8.73964 35.9563 8.86318 35.4914 8.86318C34.9306 8.86318 34.5396 8.67794 34.3182 8.31513C34.0969 7.95224 33.9788 7.38093 33.9788 6.61672V5.6826C34.0039 4.37027 34.2245 3.40913 35.521 3.4053ZM21.8777 3.50564V7.37327C21.8777 7.60489 21.8998 7.77474 21.9515 7.87509C22.0563 8.0897 22.3278 8.03485 22.4754 7.92913C22.5606 7.86888 22.6292 7.7864 22.6746 7.68985V3.50557H23.8035V8.77822H22.9181L22.8222 8.12975H22.8001C22.5566 8.6161 22.195 8.8631 21.7154 8.8631C20.9772 8.86119 20.7966 8.30475 20.7536 7.73962L20.7508 7.69979C20.7455 7.6142 20.7423 7.52847 20.7414 7.4427V3.50564H21.8777H21.8777ZM27.6995 3.50564V7.37327C27.6995 7.60489 27.7216 7.77474 27.7733 7.87509C27.8781 8.0897 28.1496 8.03485 28.2972 7.92913C28.3824 7.86888 28.451 7.7864 28.4964 7.68985V3.50557H29.6253V8.77822H28.7399L28.644 8.12975H28.6219C28.3784 8.6161 28.0168 8.8631 27.5372 8.8631C26.799 8.86119 26.6184 8.30475 26.5754 7.73962L26.5726 7.69979C26.5673 7.6142 26.5641 7.52847 26.5632 7.4427V3.50564H27.6995ZM18.6015 3.4053C18.9705 3.4053 19.273 3.48245 19.4944 3.64457C19.7157 3.80669 19.8854 4.05377 19.9887 4.39339C20.092 4.73308 20.1437 5.18852 20.1437 5.7521V6.5163C20.1437 7.07989 20.092 7.52766 19.9887 7.86728C19.8854 8.20705 19.7231 8.45406 19.4944 8.61617C19.2657 8.77056 18.9557 8.85545 18.5721 8.85545C18.1736 8.86318 17.8636 8.77829 17.6349 8.6239C17.4062 8.46179 17.2438 8.21471 17.148 7.87509C17.052 7.53539 17.0077 7.08762 17.0077 6.52411V5.75976C17.0077 5.19617 17.0594 4.73301 17.1701 4.39332C17.2808 4.04596 17.4504 3.79888 17.6866 3.64457C17.9227 3.49011 18.2252 3.40522 18.6015 3.40522V3.4053ZM31.3963 1.29004V4.06915H31.4036C31.507 3.86846 31.6397 3.70634 31.8242 3.5828C31.9965 3.4616 32.1995 3.39709 32.4071 3.39757C32.6802 3.39757 32.8868 3.47472 33.0417 3.62138C33.1967 3.77584 33.3074 4.01512 33.3737 4.34708C33.4381 4.66866 33.4747 5.11342 33.4769 5.67428L33.477 5.72898V6.56269C33.477 7.34235 33.3811 7.92139 33.204 8.29194C33.0196 8.66248 32.7392 8.84779 32.3555 8.84779C32.1415 8.84779 31.9496 8.79375 31.7726 8.6934C31.616 8.59793 31.4862 8.46102 31.3961 8.29643L31.3815 8.26875H31.3594L31.2413 8.77056H30.3042V1.29011H31.3963V1.29004ZM26.8804 1.56023V2.51741H25.7589V8.77822H24.6521V2.51748H23.5232V1.56031H26.8805L26.8804 1.56023ZM14.7129 1.56023L14.7136 1.56318C14.7244 1.61332 14.8736 2.30721 15.0377 3.11566L15.0506 3.17972L15.0702 3.27653L15.0833 3.34154L15.0898 3.37415L15.1029 3.43953L15.1095 3.47229L15.1225 3.53789L15.1415 3.63382C15.2523 4.19365 15.3581 4.7551 15.4213 5.15767H15.4509C15.5115 4.79655 15.5995 4.33442 15.6934 3.86257L15.718 3.73932C15.7304 3.67763 15.7428 3.61593 15.7553 3.55438L15.7746 3.45889C15.9021 2.8336 16.0333 2.20917 16.1684 1.58563L16.1706 1.5757L16.1739 1.56023H17.3029L15.9968 6.43149V8.77056H14.8827V6.43915H14.8753L13.584 1.56016H14.7129V1.56023ZM18.5794 4.22354C18.4244 4.22354 18.3211 4.3085 18.2548 4.48608C18.1883 4.66358 18.1588 4.93378 18.1588 5.31213V6.95642C18.1588 7.34242 18.1883 7.62801 18.2474 7.79793C18.3064 7.9677 18.4171 8.05266 18.5794 8.05266C18.7343 8.05266 18.845 7.9677 18.9114 7.79793C18.9779 7.62801 19.0074 7.34242 19.0074 6.95642V5.31205C19.0074 4.93378 18.9778 4.65585 18.9114 4.48601C18.845 4.3085 18.7343 4.22354 18.5794 4.22354ZM31.5955 4.378C31.5055 4.46488 31.4416 4.572 31.4035 4.70592L31.3963 4.73308V7.72836C31.4877 7.89047 31.6176 7.99855 31.8463 8.00628C31.9644 8.00628 32.0603 7.95997 32.1342 7.86736C32.2079 7.77474 32.2596 7.62028 32.289 7.40412C32.3174 7.19665 32.3322 6.91085 32.3333 6.54686V5.81387C32.3333 5.39702 32.3185 5.08051 32.2964 4.85662C32.2669 4.63274 32.2301 4.47062 32.1636 4.378C32.0352 4.18496 31.7578 4.18732 31.5955 4.378ZM35.4989 4.20042C35.3734 4.20815 35.2848 4.24673 35.2332 4.31623C35.1742 4.39339 35.1372 4.5092 35.1151 4.67905C35.0934 4.84543 35.0859 5.42705 35.0856 5.45032V5.82933H35.912V5.49508V5.50149C35.9115 5.61833 35.9092 5.43368 35.9041 5.207L35.9034 5.17652C35.8988 4.97729 35.892 4.75517 35.8825 4.67905C35.8604 4.50147 35.8234 4.37793 35.7644 4.3085C35.7054 4.239 35.6169 4.20042 35.4988 4.20042H35.4989Z" fill="black"/>
</g>
<defs>
<clipPath id="clip0_2916_8690">
<rect width="36.0292" height="8.54025" fill="white" transform="translate(0.954102 0.958008)"/>
</clipPath>
</defs>
</svg>
